<?xml version="1.0" standalone="no"?>
<!DOCTYPE svg PUBLIC "-//W3C//DTD SVG 20010904//EN"
 "http://www.w3.org/TR/2001/REC-SVG-20010904/DTD/svg10.dtd">
<svg version="1.0" xmlns="http://www.w3.org/2000/svg"
 width="591.000000pt" height="591.000000pt" viewBox="0 0 591.000000 591.000000"
 preserveAspectRatio="xMidYMid meet">

<g transform="translate(0.000000,591.000000) scale(0.100000,-0.100000)"
fill="#000000" stroke="none">
<path d="M522 4023 c3 -16 23 -18 218 -21 l214 -2 28 -27 c37 -36 39 -99 4
-140 l-24 -28 -219 -5 -218 -5 -3 -159 c-2 -142 -1 -158 14 -152 8 3 18 6 20
6 2 0 4 61 4 135 l0 135 191 0 c155 0 197 3 225 16 96 46 99 200 5 249 -24 12
-71 15 -246 15 -201 0 -216 -1 -213 -17z"/>
<path d="M1242 3778 c3 -241 4 -263 21 -266 16 -3 17 14 17 242 l0 246 198 0
c187 0 199 -1 221 -21 48 -45 50 -107 5 -150 -23 -21 -37 -25 -131 -29 l-105
-5 147 -160 c81 -88 149 -162 151 -164 2 -2 4 9 4 25 0 23 -23 53 -108 144
l-107 115 65 5 c36 3 75 11 88 18 59 34 81 136 42 199 -35 59 -55 63 -295 63
l-215 0 2 -262z"/>
<path d="M2146 4030 c-66 -20 -138 -91 -165 -163 -6 -16 -11 -56 -11 -90 0
-230 268 -349 437 -194 61 56 87 114 86 197 0 109 -57 195 -158 241 -43 20
-138 24 -189 9z m180 -46 c49 -24 111 -95 124 -145 21 -76 -6 -174 -62 -226
-128 -120 -340 -54 -377 117 -22 102 27 202 124 253 40 21 147 22 191 1z"/>
<path d="M2924 4024 c3 -9 6 -18 6 -20 0 -2 56 -4 125 -4 l125 0 0 -126 c0
-156 -11 -195 -70 -255 -91 -91 -226 -91 -317 0 -38 37 -63 90 -63 130 0 24
-4 31 -20 31 -44 0 -14 -111 49 -182 93 -106 262 -113 368 -15 79 73 87 98 91
290 l4 167 -152 0 c-135 0 -151 -2 -146 -16z"/>
<path d="M3410 3775 l0 -265 265 0 c258 0 265 1 265 20 0 19 -7 20 -245 20
l-245 0 0 105 0 105 245 0 c238 0 245 1 245 20 0 19 -7 20 -245 20 l-245 0 0
100 0 100 254 0 c222 0 255 2 260 16 3 9 6 18 6 20 0 2 -126 4 -280 4 l-280 0
0 -265z"/>
<path d="M4290 4019 c-201 -91 -213 -365 -20 -473 l55 -31 188 -3 c187 -4 189
-4 178 16 -10 19 -22 21 -190 24 l-179 3 -43 30 c-69 49 -102 104 -107 178 -3
53 0 70 25 117 18 34 45 66 72 85 l43 30 174 3 c164 3 174 4 174 23 0 18 -8
19 -162 19 -142 0 -169 -3 -208 -21z"/>
<path d="M4852 4023 c3 -16 18 -18 126 -21 l122 -3 0 -260 c0 -234 2 -261 16
-255 9 3 18 6 20 6 2 0 4 115 4 255 l0 255 120 0 c113 0 120 1 120 20 0 19 -7
20 -266 20 -247 0 -265 -1 -262 -17z"/>
<path d="M1865 3295 c-64 -63 6 -166 90 -131 42 18 59 48 51 92 -13 64 -94 87
-141 39z"/>
<path d="M557 3010 c-14 -11 -28 -34 -32 -50 -6 -27 26 -79 325 -533 183 -276
346 -515 362 -530 25 -24 36 -28 61 -23 17 3 39 13 48 22 10 9 129 185 266
392 l248 376 5 -372 c5 -368 5 -372 27 -394 33 -33 89 -30 119 6 l24 27 0 525
0 525 -25 24 c-30 31 -97 35 -120 8 -8 -10 -144 -211 -302 -447 -159 -236
-292 -429 -297 -430 -5 0 -135 186 -288 414 -153 228 -290 430 -303 448 -31
38 -78 43 -118 12z"/>
<path d="M2256 3008 c-43 -38 -40 -100 7 -128 31 -19 52 -20 683 -20 l652 0
112 -257 c61 -142 155 -359 208 -481 81 -188 102 -226 125 -239 33 -16 79 -10
99 14 7 9 88 194 180 412 92 218 170 396 173 396 4 0 86 -182 184 -405 175
-399 178 -405 213 -418 30 -12 41 -12 64 0 26 12 47 60 226 523 110 284 198
525 198 543 0 45 -37 82 -85 82 -62 0 -43 39 -286 -587 -52 -133 -97 -239
-100 -235 -4 4 -82 180 -174 392 -104 240 -177 394 -192 408 -30 27 -83 29
-106 4 -10 -10 -92 -196 -183 -413 -92 -217 -169 -397 -173 -401 -3 -4 -84
174 -180 395 -95 221 -182 410 -193 420 -19 16 -68 17 -724 17 l-703 0 -25
-22z"/>
<path d="M2256 2549 l-26 -20 0 -305 c0 -289 1 -305 20 -324 11 -11 30 -22 42
-25 13 -3 326 -4 696 -3 l674 3 24 28 c31 36 31 78 0 114 l-24 28 -636 3 -636
2 0 175 0 175 566 0 566 0 29 29 c17 18 29 40 29 56 0 16 -12 38 -29 56 l-29
29 -620 0 c-611 0 -620 0 -646 -21z"/>
</g>
</svg>
